<svg xmlns="http://www.w3.org/2000/svg" width="1297.862" height="772.229" viewBox="0 0 1297.862 772.229">
  <g id="Group_30" data-name="Group 30" transform="translate(-36 4.229)">
    <g id="shadow" transform="translate(36 120.669)">
      <g id="Group_1" data-name="Group 1" transform="translate(0 0)">
        <path id="Path_1" data-name="Path 1" d="M1197.336,687.494c-8.793,12.746,26.791,37.826,33.637,16.405C1235.044,691.212,1208.253,671.679,1197.336,687.494Z" transform="translate(-734.271 -681.583)" fill="#ebf2ff"/>
        <path id="Path_2" data-name="Path 2" d="M1352.981,714.429c9.619,12.156,12.805-3.6,19.415-25.021C1361.42,681.737,1341.061,699.322,1352.981,714.429Z" transform="translate(-797.15 -684.028)" fill="#ebf2ff"/>
        <path id="Path_3" data-name="Path 3" d="M1287.178,794.3c17.172,0,19.592-16.051,1.534-16.405C1273.842,777.6,1268.059,794.3,1287.178,794.3Z" transform="translate(-766.696 -721.059)" fill="#ebf2ff"/>
        <path id="Path_4" data-name="Path 4" d="M785.433,955.308c6.491-9.56,30.745-45.439,21.716-58.894-7.553-11.212-33.873-2.6-43.2.354-44.2,13.986-75.653,51.4-98.609,89.875-13.219,22.129-43.669,52.166-5.783,48.744C709.367,1030.784,757.933,995.672,785.433,955.308Z" transform="translate(-506.898 -767.346)" fill="#ebf2ff"/>
        <path id="Path_5" data-name="Path 5" d="M611.27,1514.6a170.444,170.444,0,0,0-60.6-20.772c-25.2-3.541-30.214-4.78-32.043,18.176-2.891,36.233,9.619,80.256,46.265,94.419,20.3,7.849,85.213,9.442,99.376-13.219C682.969,1563.343,631.334,1525.929,611.27,1514.6Z" transform="translate(-456.483 -1013.698)" fill="#ebf2ff"/>
        <path id="Path_6" data-name="Path 6" d="M1038.231,1168.005c-7.022.885-8.085,115.663-9.442,129.826-.826,8.262-9.147,37.177.236,40.423,6.609,2.3,26.437-16.7,28.8-20.949,14.517-25.965,12.038-75.122,14.222-104.215.708-9.088,7.908-52.4,1.416-58.775C1062.839,1143.928,1049.325,1166.589,1038.231,1168.005Z" transform="translate(-664.038 -874.235)" fill="#ebf2ff"/>
        <path id="Path_7" data-name="Path 7" d="M972.611,973.7c15.7,0,58.3-36,33.047-42.252C985.829,926.554,949.419,973.7,972.611,973.7Z" transform="translate(-639.667 -783.854)" fill="#ebf2ff"/>
        <path id="Path_8" data-name="Path 8" d="M1151.7,934.952c29.86,16.11,81.2,13.337,99.14-19.651,25.611-47.032-44.554-4.839-59.13-4.367a68.078,68.078,0,0,1-46.147-16.287c-4.662-4.013-15.284-24.313-21.952-25.08C1086.256,865.436,1141.55,929.523,1151.7,934.952Z" transform="translate(-699.375 -758.556)" fill="#ebf2ff"/>
        <path id="Path_9" data-name="Path 9" d="M1169.269,1187.166c-22.129-13.868-42.016,65.09-14.222,67.981C1179.832,1257.744,1187.208,1198.378,1169.269,1187.166Z" transform="translate(-711.929 -888.144)" fill="#ebf2ff"/>
        <path id="Path_10" data-name="Path 10" d="M1473.74,960.294c12.215,11.271,61.372,53.819,81.5,44.495,17.7-8.2-18.116-54.527-26.142-62.788-14.281-14.753-45.144-32.988-83.03-33.4C1425.292,918.337,1464.829,952.092,1473.74,960.294Z" transform="translate(-834.349 -774.633)" fill="#ebf2ff"/>
        <path id="Path_11" data-name="Path 11" d="M1546.816,1706.973H1363.467c-5.429,0-33.519-1.18-18.352,9.442,5.488,3.836,29.388,0,35.584,0h147.765c3.659,0,13.809,1.947,17.054,0C1548.114,1714.821,1556.966,1706.973,1546.816,1706.973Z" transform="translate(-793.591 -1101.857)" fill="#ebf2ff"/>
        <path id="Path_12" data-name="Path 12" d="M548.994,1731.429c-11.153.826-33.814-7.2-43.079-1.121-17.231,11.271,6.255,7.672,14.4,7.967,9.973.354,19.238,4.072,29.506,2.478,2.36-.354,4.249,4.78,6.2,3.836C566.579,1739.75,557.019,1731.429,548.994,1731.429Z" transform="translate(-448.91 -1110.498)" fill="#ebf2ff"/>
        <path id="Path_13" data-name="Path 13" d="M637.111,1724.709c-13.455-2.42-19.238,11.979-7.967,9.855C632.1,1733.974,649.15,1726.833,637.111,1724.709Z" transform="translate(-499.496 -1109.03)" fill="#ebf2ff"/>
        <path id="Path_14" data-name="Path 14" d="M490.02,1651.311c0-8.439-76.42-8.793-76.42,0C413.541,1660.1,490.02,1659.691,490.02,1651.311Z" transform="translate(-413.6 -1076.41)" fill="#ebf2ff"/>
        <path id="Path_15" data-name="Path 15" d="M749.747,1737.922c-8.144-4.9-23.015,2.891-10.917,8.144C743.315,1748.071,758.894,1743.409,749.747,1737.922Z" transform="translate(-545.035 -1113.922)" fill="#ebf2ff"/>
        <path id="Path_16" data-name="Path 16" d="M1340.6,1544.851h-6.314c18.53-20.536-3.6-59.6-13.4-79.253-8.085-16.228-33.105-73.587-57.832-69.634-49.1,7.79,18.707,132.776,36.705,148.886q-58.245-.089-116.43-.236c33.283-42.843-87.632-45.557-103.27-44.082-28.916,2.714-56.769,11.33-85.567,14.576-30.568,3.482-59.425-4.957-89.816-5.606-10.327-.236-119.381,22.011-85.98,43.9,5.9,3.835,27.677.059,34.4.059l385.169.708q39.745.089,79.489.118c4.6,0,15.638,2.183,19.769.059C1340.009,1552.995,1353.818,1544.91,1340.6,1544.851Z" transform="translate(-577.047 -974.316)" fill="#ebf2ff"/>
        <path id="Path_17" data-name="Path 17" d="M1201.422,1700.474c14.34-8.911-30.332-18-27.794-4.131C1174.749,1702.6,1198.294,1702.421,1201.422,1700.474Z" transform="translate(-725.08 -1094.591)" fill="#ebf2ff"/>
        <path id="Path_18" data-name="Path 18" d="M913.472,1707.3c-10.268-5.193-15.52-2.361-26.024-3.659-8.616-1.062-22.247-7.554-30.745-5.842-4.485.885-18.116,2.419-12.215,10.091,3.128,4.013,10.74-1.239,14.517-.649,11.743,1.83,23.192,3.364,34.758,5.016C895.592,1712.554,927.222,1714.325,913.472,1707.3Z" transform="translate(-589.616 -1097.997)" fill="#ebf2ff"/>
        <path id="Path_19" data-name="Path 19" d="M1011.716,1708.9c-7.849-2.715-26.5,2.833-12.805,8.026C1005.815,1719.586,1022.456,1712.622,1011.716,1708.9Z" transform="translate(-651.509 -1102.373)" fill="#ebf2ff"/>
        <path id="Path_20" data-name="Path 20" d="M1230.592,1758.9c-6.9-1.3-26.732,6.491-12.628,11.153C1225.989,1772.708,1240.742,1760.493,1230.592,1758.9Z" transform="translate(-741.267 -1123.098)" fill="#ebf2ff"/>
        <path id="Path_21" data-name="Path 21" d="M1836.9,1354.5l-95.6,222.179h355.368c12.274,0,35.171,4.544,46.737,0,19.179-7.494,31.276-59.779,39.715-79.43q30.716-71.345,61.431-142.749Z" transform="translate(-957.802 -957.4)" fill="#ebf2ff"/>
      </g>
    </g>
    <g id="cup" transform="translate(589.085 462.946)">
      <g id="Group_14" data-name="Group 14" transform="translate(0 0)">
        <g id="Group_3" data-name="Group 3">
          <path id="Path_22" data-name="Path 22" d="M1563.721,1309.93c-2.951,6.786-27.2,5.193-57.359-7.907-13.986-6.078-26.378-13.455-34.935-20.713-7.731-6.55-11.448-12.51-10.032-15.815h0c1.121-2.538,5.37-3.895,11.743-3.895a53.646,53.646,0,0,1,6.609.413c11.153,1.239,25.021,5.311,39.007,11.389C1548.909,1286.444,1566.671,1303.144,1563.721,1309.93Z" transform="translate(-1396.037 -1261.6)" fill="#003188"/>
          <path id="Path_23" data-name="Path 23" d="M1535.525,1322.821h0a27.878,27.878,0,0,1-10.268,1.652,61.158,61.158,0,0,1-7.081-.413c-11.566-1.3-25.847-5.429-40.187-11.684s-27.145-13.809-36-21.362c-5.783-4.957-9.5-9.5-10.976-13.514l-34.935,123.571h0c-1.947,4.426,12.865,15.107,33.105,23.9,20.182,8.734,38.122,12.274,40.069,7.848h0Z" transform="translate(-1369.317 -1268.117)" fill="#003188"/>
          <path id="Path_24" data-name="Path 24" d="M1563.721,1312.636c-2.951,6.786-27.2,5.193-57.359-7.907-13.986-6.078-26.378-13.455-34.935-20.713-7.731-6.55-11.448-12.51-10.032-15.815Z" transform="translate(-1396.037 -1264.305)" fill="#003188"/>
          <g id="Group_2" data-name="Group 2" transform="translate(0 21.794)">
            <path id="Path_25" data-name="Path 25" d="M1377.788,1377.294a7.371,7.371,0,0,1-5.842-2.833c-8.439-10.8-15.7-20.713-19.238-32.4-4.485-14.93-.708-29.8,9.678-37.826a26.43,26.43,0,0,1,17.7-5.665c7.494.354,14.458,4.131,18.176,9.855a7.373,7.373,0,1,1-12.333,8.085c-1.121-1.711-3.895-3.069-6.55-3.187a12.367,12.367,0,0,0-7.908,2.6c-4.19,3.246-7.907,10.917-4.6,21.893,2.773,9.265,9.265,18,16.759,27.559a7.333,7.333,0,0,1-1.24,10.327A7.642,7.642,0,0,1,1377.788,1377.294Z" transform="translate(-1350.847 -1298.532)" fill="#003188"/>
          </g>
        </g>
        <g id="Group_5" data-name="Group 5" transform="translate(4.419 23.652)">
          <g id="Group_4" data-name="Group 4">
            <path id="Path_26" data-name="Path 26" d="M1382.745,1301.692a26.25,26.25,0,0,0-21.657,14.989c-4.308,9.147-3.3,19.474,1.239,28.267,1.062,2.006,4.072.236,3.069-1.77-3.954-7.672-4.9-16.759-1.239-24.726a22.848,22.848,0,0,1,18.648-13.219c2.184-.236,2.242-3.777-.059-3.541Z" transform="translate(-1358.335 -1301.681)" fill="#fff"/>
          </g>
        </g>
        <g id="Group_7" data-name="Group 7" transform="translate(10.398 69.599)">
          <g id="Group_6" data-name="Group 6">
            <path id="Path_27" data-name="Path 27" d="M1369.313,1382.821s.118.118.118.059c0,.059-.354-.236-.118-.059.118.118-.177-.295-.118-.177s.059.177.118.177a2.874,2.874,0,0,1-.177-.413c.059.118.059.236.118.354,0-.177-.059-.3-.059-.472v.177a1.77,1.77,0,0,0,3.541,0,3.176,3.176,0,0,0-1.593-2.715,1.807,1.807,0,0,0-2.419.649,1.737,1.737,0,0,0,.59,2.419Z" transform="translate(-1368.468 -1379.541)" fill="#fff"/>
          </g>
        </g>
        <g id="Group_9" data-name="Group 9" transform="translate(35.649 134.503)">
          <g id="Group_8" data-name="Group 8">
            <path id="Path_28" data-name="Path 28" d="M1411.991,1492.933a111.3,111.3,0,0,0,52.225,21.893c2.243.3,3.187-3.127.944-3.423a109.036,109.036,0,0,1-51.4-21.539c-1.77-1.357-3.541,1.711-1.77,3.068Z" transform="translate(-1411.257 -1489.526)" fill="#fff"/>
          </g>
        </g>
        <g id="Group_11" data-name="Group 11" transform="translate(71.22 30.667)">
          <g id="Group_10" data-name="Group 10">
            <path id="Path_29" data-name="Path 29" d="M1472.34,1316.951a178.6,178.6,0,0,0,52.4,25.552c2.183.649,3.128-2.774.944-3.423a173.556,173.556,0,0,1-51.517-25.2c-1.947-1.3-3.718,1.77-1.829,3.068Z" transform="translate(-1471.535 -1313.569)" fill="#fff"/>
          </g>
        </g>
        <g id="Group_13" data-name="Group 13" transform="translate(129.683 57.851)">
          <g id="Group_12" data-name="Group 12">
            <path id="Path_30" data-name="Path 30" d="M1571.9,1363.095c1.416.236,2.833.531,4.308.767a1.775,1.775,0,0,0,.944-3.423c-1.417-.236-2.833-.531-4.308-.767a1.812,1.812,0,0,0-2.183,1.239,1.785,1.785,0,0,0,1.239,2.183Z" transform="translate(-1570.605 -1359.632)" fill="#fff"/>
          </g>
        </g>
      </g>
    </g>
    <g id="color_shadow" transform="translate(464.836 7.272)">
      <g id="Group_15" data-name="Group 15" transform="translate(0 0)">
        <path id="Path_31" data-name="Path 31" d="M1773.224,1016.986c-6.078-4.19-14.34-.472-20.595,3.482s-13.868,8.321-20.536,5.134h-.059c-8.144-3.895-7.967-15.638-4.662-24.018,7.849-20.123,25.788-35.525,31.335-56.415a31.36,31.36,0,0,0,1-6.668c-5.311-2.478-12.333-.708-17.231,2.951-10.327,7.671-14.517,21.48-24.49,29.624-10.622,8.675-25.847,9.383-37.236,17.054-13.16,8.911-18.707,25.257-22.72,40.6-3.954,15.343-7.671,31.807-18.825,43.079-19.061,19.238-51.812,15.815-74.118,31.217-11.685,8.085-18.766,20.713-23.192,33.991-.885,2.6-9.5,30.391-6.609,31.689,0,0,15.048,6.786,28.68,9.8,5.193,1.18,4.249-7.731,7.849-10.976,9.029-8.321,21.893-14.1,32.869-15.4,16.287-1.888,32.751,1.121,49.216,1.121,14.517,0,29.152-2.42,42.429-8.321,5.783-2.538,11.566-6.019,14.635-11.625a14.6,14.6,0,0,0,1.534-4.426c.826-4.78-.649-9.973-4.721-12.511a20.633,20.633,0,0,0-4.367-1.829c-3.128-1-6.314-1.829-7.79-4.544s-.472-6.137.944-8.911c6.727-12.923,21.067-19.533,33.637-26.85a183.483,183.483,0,0,0,37.944-29.388c3.777-3.895,7.554-8.084,9.088-13.278a16.2,16.2,0,0,0,.531-2.3C1778.417,1024.657,1777,1019.582,1773.224,1016.986Z" transform="translate(-1301.956 -673.02)" fill="#e0e7ff"/>
        <path id="Path_32" data-name="Path 32" d="M1614.931,1124.48c1.476.885,4.131.472,4.839-1.3a75.292,75.292,0,0,1,6.255-11.8c2.479-3.836-3.6-7.376-6.137-3.6a72.769,72.769,0,0,0-6.255,11.8C1612.924,1121.411,1613.1,1123.418,1614.931,1124.48Z" transform="translate(-1334.152 -742.216)" fill="#e0e7ff"/>
        <path id="Path_33" data-name="Path 33" d="M1994.029,863.444c.708,1.593-2.656,5.665-3.541,6.786a34.978,34.978,0,0,1-5.606,5.842c-3.481,2.951,1.534,7.908,5.016,5.016,5.547-4.721,13.573-13.4,10.268-21.185C1998.337,855.713,1992.259,859.313,1994.029,863.444Z" transform="translate(-1485.996 -640.511)" fill="#e0e7ff"/>
        <path id="Path_34" data-name="Path 34" d="M1987.579,921.048a26.65,26.65,0,0,1-3.364,8.026c-2.419,3.895,3.718,7.435,6.137,3.6a32.167,32.167,0,0,0,4.072-9.737C1995.486,918.511,1988.641,916.622,1987.579,921.048Z" transform="translate(-1485.978 -665.305)" fill="#e0e7ff"/>
        <path id="Path_35" data-name="Path 35" d="M2090.469,976.247a85.917,85.917,0,0,1-28.621,13.16c-4.426,1.121-2.537,7.967,1.888,6.845a91.358,91.358,0,0,0,30.332-13.868C2097.727,979.728,2094.186,973.591,2090.469,976.247Z" transform="translate(-1516.992 -688.696)" fill="#e0e7ff"/>
        <path id="Path_36" data-name="Path 36" d="M1696.04,1363a20.915,20.915,0,0,1-13.927-7.73c-2.892-3.541-7.907,1.534-5.016,5.016a27.66,27.66,0,0,0,18.943,9.8C1700.584,1370.549,1700.584,1363.468,1696.04,1363Z" transform="translate(-1359.967 -843.825)" fill="#e0e7ff"/>
        <path id="Path_37" data-name="Path 37" d="M1189.515,531.642c-26.673,4.839-40.423,30.627-48.98,53.7-1,2.714,1.357,4.426,3.6,4.249a3.607,3.607,0,0,0,3.6,1.475c2.184-.354,5.96-1.18,7.672.767,1.534,1.711-.413,5.193-.767,7.2a33.1,33.1,0,0,0,.885,15.933,3.547,3.547,0,0,0,5.9,1.534c10.209-9.206,14.871-23.664,19.474-36.174a330.21,330.21,0,0,0,12.924-44.436A3.487,3.487,0,0,0,1189.515,531.642Z" transform="translate(-1140.297 -506.693)" fill="#e0e7ff"/>
        <path id="Path_38" data-name="Path 38" d="M1342.877,503.159c-6.728-6.019-15.7-9.265-24.372-11.153-16.406-3.482-36.764-4.485-52.167,3.718a3.6,3.6,0,0,0-2.124.472c-7.436,4.426-14.635,10.5-16.877,19.238-2.065,8.144.708,16.287,7.79,20.949,6.609,4.367,15.225,5.37,22.9,6.55a147.464,147.464,0,0,0,26.968,2.006c8.556-.3,17.231-1.652,25.2-4.957,7.317-3.01,15.638-7.553,19.061-15.048C1352.791,517.027,1349.014,508.647,1342.877,503.159Z" transform="translate(-1183.898 -489.422)" fill="#e0e7ff"/>
      </g>
    </g>
    <g id="outline" transform="translate(42.904 75.063)">
      <g id="Group_27" data-name="Group 27" transform="translate(0 0)">
        <path id="Path_39" data-name="Path 39" d="M1145.353,630.088a12.942,12.942,0,0,0-11.8,1.3,17.9,17.9,0,0,0-7.14,9.8,22.081,22.081,0,0,0,13.927,27.558" transform="translate(-712.266 -614.509)" fill="none" stroke="#312e81" stroke-linecap="round" stroke-linejoin="round" stroke-miterlimit="10" stroke-width="7"/>
        <path id="Path_40" data-name="Path 40" d="M1142.3,655.9a19.845,19.845,0,0,1,7.553,8.2" transform="translate(-719.186 -625.45)" fill="none" stroke="#312e81" stroke-linecap="round" stroke-linejoin="round" stroke-miterlimit="10" stroke-width="7"/>
        <path id="Path_41" data-name="Path 41" d="M1151.947,715.6c-.413,31.1-1.357,43.609-5.547,74.473" transform="translate(-720.867 -649.92)" fill="none" stroke="#312e81" stroke-linecap="round" stroke-linejoin="round" stroke-miterlimit="10" stroke-width="7"/>
        <path id="Path_42" data-name="Path 42" d="M1248.1,621.267a25.372,25.372,0,0,1,24.254-3.423" transform="translate(-762.552 -609.169)" fill="none" stroke="#312e81" stroke-linecap="round" stroke-linejoin="round" stroke-miterlimit="10" stroke-width="7"/>
        <path id="Path_43" data-name="Path 43" d="M1308.8,677.638a11.413,11.413,0,0,0,10.8-7.14c1.888-4.9.236-10.327-.826-15.4a61.323,61.323,0,0,1,2.773-33.7" transform="translate(-787.432 -611.309)" fill="none" stroke="#312e81" stroke-linecap="round" stroke-linejoin="round" stroke-miterlimit="10" stroke-width="7"/>
        <path id="Path_44" data-name="Path 44" d="M1331,618.963a34.472,34.472,0,0,1,26.85-.413" transform="translate(-796.531 -609.109)" fill="none" stroke="#312e81" stroke-linecap="round" stroke-linejoin="round" stroke-miterlimit="10" stroke-width="7"/>
        <path id="Path_45" data-name="Path 45" d="M1262.78,663.3a24.488,24.488,0,0,0-1.18,7.435c0,.531.118,1.18.649,1.239.472.059.826-.472.944-1a16.449,16.449,0,0,0,.531-7.376" transform="translate(-768.085 -628.483)" fill="none" stroke="#312e81" stroke-linecap="round" stroke-linejoin="round" stroke-miterlimit="10" stroke-width="7"/>
        <path id="Path_46" data-name="Path 46" d="M1349.108,667.8a18.786,18.786,0,0,0-1.121,7.2c0,.413.3,1.062.708.885a.624.624,0,0,0,.354-.413,11.559,11.559,0,0,0,.885-7.435" transform="translate(-803.486 -630.328)" fill="none" stroke="#312e81" stroke-linecap="round" stroke-linejoin="round" stroke-miterlimit="10" stroke-width="7"/>
        <path id="Path_47" data-name="Path 47" d="M1301.572,735.516a32.86,32.86,0,0,0-16.405,1.121c-2.892,1-5.724,2.479-7.081,4.78a4.8,4.8,0,0,0,1.711,6.786c1.829,1,4.249,1,6.491.885a99.818,99.818,0,0,0,11.094-1.3" transform="translate(-774.539 -657.857)" fill="none" stroke="#312e81" stroke-linecap="round" stroke-linejoin="round" stroke-miterlimit="10" stroke-width="7"/>
        <path id="Path_48" data-name="Path 48" d="M1301.1,610.2v2.833" transform="translate(-784.276 -606.718)" fill="none" stroke="#312e81" stroke-linecap="round" stroke-linejoin="round" stroke-miterlimit="10" stroke-width="7"/>
        <path id="Path_49" data-name="Path 49" d="M1320,604.3a394.6,394.6,0,0,1-16.346,89.875c-5.252,17.113-13.159,35.584-29.565,42.843-11.566,5.134-25.434,3.3-36.587-2.6s-20-15.579-27.2-25.965" transform="translate(-747.059 -604.3)" fill="none" stroke="#312e81" stroke-linecap="round" stroke-linejoin="round" stroke-miterlimit="10" stroke-width="7"/>
        <path id="Path_50" data-name="Path 50" d="M1340.964,812.3c-1.416,20.477-1,20.536-3.364,40.9" transform="translate(-799.237 -689.556)" fill="none" stroke="#312e81" stroke-linecap="round" stroke-linejoin="round" stroke-miterlimit="10" stroke-width="7"/>
        <path id="Path_51" data-name="Path 51" d="M1214.4,787.7c3.895,12.51,10.327,24.549,20.359,33.047s23.9,12.923,36.587,9.619a26.145,26.145,0,0,0,14.1-8.793c3.482-4.426,5.075-10.5,3.482-15.933-7.318,8.852-19.71,12.51-31.1,11.33-11.448-1.18-22.071-6.609-31.335-13.4-3.128-2.3-6.432-5.193-6.845-9.088" transform="translate(-748.739 -679.473)" fill="#312e81" stroke="#312e81" stroke-linecap="round" stroke-linejoin="round" stroke-miterlimit="10" stroke-width="7"/>
        <path id="Path_52" data-name="Path 52" d="M876.378,860.3q-57.005,4.868-113.42,14.4c-34.64,5.842-70.46,13.632-98.018,35.407C643.518,927.042,629,951,615.783,974.842c-40.3,72.82-72.82,150.244-92.353,231.208-5.311,22.011-9.678,44.613-7.908,67.155s10.268,45.38,27.145,60.487c20.064,17.94,49.511,22.484,75.948,17.526s50.573-18.294,73.233-32.752c55.235-35.289,105.041-78.249,154.67-121.092" transform="translate(-462.116 -709.23)" fill="none" stroke="#312e81" stroke-linecap="round" stroke-linejoin="round" stroke-miterlimit="10" stroke-width="7"/>
        <path id="Path_53" data-name="Path 53" d="M1094.212,1130.5a795.018,795.018,0,0,1-14.812,191.021" transform="translate(-693.405 -819.981)" fill="none" stroke="#312e81" stroke-linecap="round" stroke-linejoin="round" stroke-miterlimit="10" stroke-width="7"/>
        <path id="Path_54" data-name="Path 54" d="M957.005,1161.3q-59.484,44.436-118.908,88.813c-19.356,14.458-39.125,29.329-52.815,49.216-1.652,2.419-3.187,5.724-1.357,8.026a5.431,5.431,0,0,0,3.718,1.77c8.439,1.062,15.343-6.255,20.477-13.042a548.484,548.484,0,0,0,67.8-116.843" transform="translate(-571.954 -832.605)" fill="none" stroke="#312e81" stroke-linecap="round" stroke-linejoin="round" stroke-miterlimit="10" stroke-width="7"/>
        <path id="Path_55" data-name="Path 55" d="M972.3,969.393a238.078,238.078,0,0,1,32.043-21.893" transform="translate(-649.506 -744.972)" fill="none" stroke="#312e81" stroke-linecap="round" stroke-linejoin="round" stroke-miterlimit="10" stroke-width="7"/>
        <path id="Path_56" data-name="Path 56" d="M644.415,1188.7A367.215,367.215,0,0,0,604.7,1300.94" transform="translate(-498.833 -843.836)" fill="none" stroke="#312e81" stroke-linecap="round" stroke-linejoin="round" stroke-miterlimit="10" stroke-width="7"/>
        <path id="Path_57" data-name="Path 57" d="M643.585,1280.5a134.887,134.887,0,0,0-8.085,36" transform="translate(-511.458 -881.463)" fill="none" stroke="#312e81" stroke-linecap="round" stroke-linejoin="round" stroke-miterlimit="10" stroke-width="7"/>
        <path id="Path_58" data-name="Path 58" d="M1109.2,1132.238c21.716-15.52,35.23-31.689,49.216-54.468,1.593-2.6,3.187-5.252,5.488-7.2,2.361-1.947,5.665-3.01,8.5-1.888,4.9,2.006,5.311,8.675,4.367,13.868-2.478,14.163-9.147,31.158-15.756,43.432" transform="translate(-705.619 -794.456)" fill="none" stroke="#312e81" stroke-linecap="round" stroke-linejoin="round" stroke-miterlimit="10" stroke-width="7"/>
        <path id="Path_59" data-name="Path 59" d="M1287.342,1199.7a132.712,132.712,0,0,1-42.842,32.869" transform="translate(-761.077 -848.345)" fill="none" stroke="#312e81" stroke-linecap="round" stroke-linejoin="round" stroke-miterlimit="10" stroke-width="7"/>
        <path id="Path_60" data-name="Path 60" d="M1214.052,1228.6a7.3,7.3,0,0,0-5.252,2.065" transform="translate(-746.443 -860.188)" fill="none" stroke="#312e81" stroke-linecap="round" stroke-linejoin="round" stroke-miterlimit="10" stroke-width="7"/>
        <path id="Path_61" data-name="Path 61" d="M1218.254,1249.8a5.987,5.987,0,0,1-3.954,2.006" transform="translate(-748.698 -868.88)" fill="none" stroke="#312e81" stroke-linecap="round" stroke-linejoin="round" stroke-miterlimit="10" stroke-width="7"/>
        <path id="Path_62" data-name="Path 62" d="M1287.21,1176.7a227.706,227.706,0,0,1-40.01,29.034" transform="translate(-762.183 -838.917)" fill="none" stroke="#312e81" stroke-linecap="round" stroke-linejoin="round" stroke-miterlimit="10" stroke-width="7"/>
        <path id="Path_63" data-name="Path 63" d="M1101.5,1321a210.591,210.591,0,0,1,64.854-50.809c10.268-5.193,21.008-9.56,30.922-15.461a112.5,112.5,0,0,0,36.764-35.525" transform="translate(-702.463 -856.337)" fill="none" stroke="#312e81" stroke-linecap="round" stroke-linejoin="round" stroke-miterlimit="10" stroke-width="7"/>
        <path id="Path_64" data-name="Path 64" d="M1186.3,1138.042c13.809-7.317,27.558-14.694,41.367-22.011,8.2-4.367,16.464-8.793,24.254-13.809,10.386-6.669,20.359-14.635,32.456-17.527,2.3-.531,5.37-.531,6.2,1.593a4.081,4.081,0,0,1-.118,2.773,32.873,32.873,0,0,1-4.839,9.5c-17,25.139-45.026,40.836-72.053,55.707" transform="translate(-737.221 -801.085)" fill="none" stroke="#312e81" stroke-linecap="round" stroke-linejoin="round" stroke-miterlimit="10" stroke-width="7"/>
        <path id="Path_65" data-name="Path 65" d="M1135.6,871c11.389,19.651,33.165,33.7,56.946,36.646,23.782,3.01,48.921-5.134,65.857-21.244" transform="translate(-716.44 -713.616)" fill="none" stroke="#312e81" stroke-linecap="round" stroke-linejoin="round" stroke-miterlimit="10" stroke-width="7"/>
        <path id="Path_66" data-name="Path 66" d="M1118.8,901.6c11.625,22.424,36.469,38.417,63.32,40.836,26.909,2.419,54.881-8.793,71.522-28.68" transform="translate(-709.554 -726.158)" fill="none" stroke="#312e81" stroke-linecap="round" stroke-linejoin="round" stroke-miterlimit="10" stroke-width="7"/>
        <path id="Path_67" data-name="Path 67" d="M1259.659,878.1c-.354,4.013-3.069,8.144-3.659,9.088" transform="translate(-765.79 -716.526)" fill="none" stroke="#312e81" stroke-linecap="round" stroke-linejoin="round" stroke-miterlimit="10" stroke-width="7"/>
        <path id="Path_68" data-name="Path 68" d="M1358.7,892.1c36.41,12.923,78.839,5.783,112.594,24.549,26.555,14.694,42.606,42.665,56.179,69.811,7.553,15.107,14.694,30.332,21.48,45.793" transform="translate(-807.885 -722.264)" fill="none" stroke="#312e81" stroke-linecap="round" stroke-linejoin="round" stroke-miterlimit="10" stroke-width="7"/>
        <path id="Path_69" data-name="Path 69" d="M1765.1,1325.1a412.645,412.645,0,0,1,28.5,58.835" transform="translate(-974.462 -899.744)" fill="none" stroke="#312e81" stroke-linecap="round" stroke-linejoin="round" stroke-miterlimit="10" stroke-width="7"/>
        <path id="Path_70" data-name="Path 70" d="M1445.025,1557a151.457,151.457,0,0,1-11.625,55.412" transform="translate(-838.503 -994.796)" fill="none" stroke="#312e81" stroke-linecap="round" stroke-linejoin="round" stroke-miterlimit="10" stroke-width="7"/>
        <path id="Path_71" data-name="Path 71" d="M1337.3,1604.583a133.773,133.773,0,0,0,34.522-22.483" transform="translate(-799.114 -1005.084)" fill="none" stroke="#312e81" stroke-linecap="round" stroke-linejoin="round" stroke-miterlimit="10" stroke-width="7"/>
        <path id="Path_72" data-name="Path 72" d="M1377.868,1610.8a40.153,40.153,0,0,0-10.268,7.553" transform="translate(-811.533 -1016.848)" fill="none" stroke="#312e81" stroke-linecap="round" stroke-linejoin="round" stroke-miterlimit="10" stroke-width="7"/>
        <path id="Path_73" data-name="Path 73" d="M1243.9,1597.9c.944.354,1.829.649,2.774,1" transform="translate(-760.831 -1011.56)" fill="none" stroke="#312e81" stroke-linecap="round" stroke-linejoin="round" stroke-miterlimit="10" stroke-width="7"/>
        <path id="Path_74" data-name="Path 74" d="M975.3,1596.1a194.322,194.322,0,0,0,62.2,20.477" transform="translate(-650.736 -1010.822)" fill="none" stroke="#312e81" stroke-linecap="round" stroke-linejoin="round" stroke-miterlimit="10" stroke-width="7"/>
        <path id="Path_75" data-name="Path 75" d="M1053.6,1596.6c4.367,1.888,8.734,3.718,13.1,5.606" transform="translate(-682.83 -1011.027)" fill="none" stroke="#312e81" stroke-linecap="round" stroke-linejoin="round" stroke-miterlimit="10" stroke-width="7"/>
        <path id="Path_76" data-name="Path 76" d="M1055.208,1206.5a727.641,727.641,0,0,1-21.008,131.891" transform="translate(-674.878 -851.132)" fill="none" stroke="#312e81" stroke-linecap="round" stroke-linejoin="round" stroke-miterlimit="10" stroke-width="7"/>
        <path id="Path_77" data-name="Path 77" d="M900.6,1210.995a208.05,208.05,0,0,0,.944-27.794" transform="translate(-620.118 -841.582)" fill="none" stroke="#312e81" stroke-linecap="round" stroke-linejoin="round" stroke-miterlimit="10" stroke-width="7"/>
        <path id="Path_78" data-name="Path 78" d="M1575.6,1542.3c12.216,24.549,21.244,40.836,35.525,64.087" transform="translate(-896.789 -988.771)" fill="none" stroke="#312e81" stroke-linecap="round" stroke-linejoin="round" stroke-miterlimit="10" stroke-width="7"/>
        <path id="Path_79" data-name="Path 79" d="M1618.9,1552.6a216.681,216.681,0,0,1,12.747,24.018" transform="translate(-914.537 -992.992)" fill="none" stroke="#312e81" stroke-linecap="round" stroke-linejoin="round" stroke-miterlimit="10" stroke-width="7"/>
        <g id="Group_16" data-name="Group 16" transform="translate(596.844 84.387)">
          <path id="Path_80" data-name="Path 80" d="M1441,748.893q13.1-.531,26.2-1.593" transform="translate(-1438.463 -747.3)" fill="none" stroke="#312e81" stroke-linecap="round" stroke-linejoin="round" stroke-miterlimit="10" stroke-width="7"/>
          <path id="Path_81" data-name="Path 81" d="M1436.7,775.3a236.64,236.64,0,0,1,22.071,11.448" transform="translate(-1436.7 -758.777)" fill="none" stroke="#312e81" stroke-linecap="round" stroke-linejoin="round" stroke-miterlimit="10" stroke-width="7"/>
        </g>
        <path id="Path_82" data-name="Path 82" d="M852.7,1705.61a28.347,28.347,0,0,1,27.913.177c2.006,1.18,4.013,2.656,6.314,2.95,2.065.236,4.131-.531,6.137-1.062a29.827,29.827,0,0,1,23.664,3.718" transform="translate(-600.484 -1054.239)" fill="none" stroke="#312e81" stroke-linecap="round" stroke-linejoin="round" stroke-miterlimit="10" stroke-width="7"/>
        <path id="Path_83" data-name="Path 83" d="M999.9,1712.1c3.187.472,6.432.944,9.619,1.416" transform="translate(-660.819 -1058.369)" fill="none" stroke="#312e81" stroke-linecap="round" stroke-linejoin="round" stroke-miterlimit="10" stroke-width="7"/>
        <path id="Path_84" data-name="Path 84" d="M1179.4,1696.1a18.6,18.6,0,0,1,19.592.413" transform="translate(-734.393 -1050.752)" fill="none" stroke="#312e81" stroke-linecap="round" stroke-linejoin="round" stroke-miterlimit="10" stroke-width="7"/>
        <path id="Path_85" data-name="Path 85" d="M506.3,1732.794a19.238,19.238,0,0,1,17.231-3.246c3.128.944,6.019,2.773,9.206,3.069,2.655.295,5.252-.413,7.908-.708a23.5,23.5,0,0,1,16.228,4.544" transform="translate(-458.501 -1065.196)" fill="none" stroke="#312e81" stroke-linecap="round" stroke-linejoin="round" stroke-miterlimit="10" stroke-width="7"/>
        <path id="Path_86" data-name="Path 86" d="M628.1,1732.574a13.392,13.392,0,0,1,8.262-1.3" transform="translate(-508.424 -1066.155)" fill="none" stroke="#312e81" stroke-linecap="round" stroke-linejoin="round" stroke-miterlimit="10" stroke-width="7"/>
        <path id="Path_87" data-name="Path 87" d="M733.3,1747.218c3.246-.059,6.432-.059,9.678-.118" transform="translate(-551.544 -1072.715)" fill="none" stroke="#312e81" stroke-linecap="round" stroke-linejoin="round" stroke-miterlimit="10" stroke-width="7"/>
        <path id="Path_88" data-name="Path 88" d="M1219.4,1764.321c3.954-.354,7.907-.767,11.861-1.121" transform="translate(-750.789 -1079.314)" fill="none" stroke="#312e81" stroke-linecap="round" stroke-linejoin="round" stroke-miterlimit="10" stroke-width="7"/>
        <path id="Path_89" data-name="Path 89" d="M2232.08,1311H1794.508L1692.3,1557.492h437.571Z" transform="translate(-944.622 -893.965)" fill="none" stroke="#312e81" stroke-linecap="round" stroke-linejoin="round" stroke-miterlimit="10" stroke-width="7"/>
        <path id="Path_90" data-name="Path 90" d="M1548.472,1717.756H1341.4V1702h213.622" transform="translate(-800.794 -1054.229)" fill="none" stroke="#312e81" stroke-linecap="round" stroke-linejoin="round" stroke-miterlimit="10" stroke-width="7"/>
        <circle id="Ellipse_1" data-name="Ellipse 1" cx="19.474" cy="19.474" r="19.474" transform="translate(1022.082 520.837)" fill="none" stroke="#312e81" stroke-linecap="round" stroke-linejoin="round" stroke-miterlimit="10" stroke-width="7"/>
        <line id="Line_1" data-name="Line 1" x2="520.542" transform="translate(233.686 618.324)" fill="none" stroke="#312e81" stroke-linecap="round" stroke-linejoin="round" stroke-miterlimit="10" stroke-width="7"/>
        <line id="Line_2" data-name="Line 2" x1="57.949" transform="translate(0 618.324)" fill="none" stroke="#312e81" stroke-linecap="round" stroke-linejoin="round" stroke-miterlimit="10" stroke-width="7"/>
        <g id="Group_18" data-name="Group 18" transform="translate(715.885 210.637)">
          <g id="Group_17" data-name="Group 17">
            <path id="Path_91" data-name="Path 91" d="M1640.417,961.453a4.091,4.091,0,0,0,0,7.023,2.894,2.894,0,0,0,3.954-1.062,2.948,2.948,0,0,0-.826-4.131c-1.947-1.18-3.718,1.829-1.77,3.069-.354-.236-.354-.531-.354-.885a.217.217,0,0,1-.059.177c.059-.177.059-.177,0-.059-.177.059.059-.059.118-.118a.634.634,0,0,1,.354-.118.747.747,0,0,1,.354.059c.236.059.295.118.177,0l-.177-.059c.118.059-.177-.177,0,0-.059-.118-.118-.177-.059,0-.059-.118-.059-.236-.118-.295.059.295,0-.236,0-.354,0,.177,0,.118.059,0,.177-.413-.118.118.059-.118.177-.177-.177.118,0,0,.236-.177-.354.177.118-.059a1.807,1.807,0,0,0,.649-2.419,1.878,1.878,0,0,0-2.478-.649Z" transform="translate(-1638.425 -961.241)" fill="#312e81"/>
          </g>
        </g>
        <g id="Group_20" data-name="Group 20" transform="translate(33.99 443.642)">
          <g id="Group_19" data-name="Group 19">
            <path id="Path_92" data-name="Path 92" d="M482.9,1357.806a5.493,5.493,0,0,0,2.656,4.839,4.071,4.071,0,0,0,5.075-1.357,3.064,3.064,0,0,0-1.593-4.544,3,3,0,0,0-4.072,1.888c.708-.413,1.475-.826,2.183-1.239-2.537-.59-3.482,2.656-1.652,4.072a2.348,2.348,0,0,0,3.069-.3,4.221,4.221,0,0,0,1-2.891c.059-2.3-3.482-2.3-3.541,0,0,.059,0,.413-.059.413,0,.059-.059.118-.059.236a1.587,1.587,0,0,1,.413-.472h.944a1.058,1.058,0,0,1,.59,1.593l-.649.649c-.059.059-.177.059-.236.118h-.944c.059,0,.059,0,.118.059a1.785,1.785,0,0,0,2.183-1.239c-.118.354-.472.354-.649.472.059-.059.236.059.059,0,.177.059.118.118.059,0-.118-.177-.118-.472-.236-.649-.118-.118.59-.059-.118.059-.3,0-.354.118-.59-.177a2.212,2.212,0,0,1-.472-1.475c0-2.361-3.541-2.361-3.482-.059Z" transform="translate(-482.899 -1356.087)" fill="#312e81"/>
          </g>
        </g>
        <g id="Group_22" data-name="Group 22" transform="translate(190.474 532.237)">
          <g id="Group_21" data-name="Group 21">
            <path id="Path_93" data-name="Path 93" d="M749.388,1507.092l-1.062,1.594a1.754,1.754,0,0,0,.649,2.42,1.807,1.807,0,0,0,2.419-.649l1.062-1.594a1.754,1.754,0,0,0-.649-2.419,1.822,1.822,0,0,0-2.419.649Z" transform="translate(-748.074 -1506.218)" fill="#312e81"/>
          </g>
        </g>
        <g id="Group_24" data-name="Group 24" transform="translate(919.399 390.283)">
          <g id="Group_23" data-name="Group 23">
            <path id="Path_94" data-name="Path 94" d="M1989.022,1266.512a3.3,3.3,0,0,0-3.836-.413,3.4,3.4,0,0,0-1.888,3.069,1.776,1.776,0,0,0,1.771,1.771,1.815,1.815,0,0,0,1.77-1.771c0-.118.059-.472,0,0,.059-.354-.177.3,0,0-.118.177-.177.177,0,.059.118-.059-.295.177.059,0,.118-.059.059-.059-.177.059.059,0,.059,0,.118-.059.413.059-.413-.118,0,0,.354.059-.354-.118,0,0-.059-.059-.118-.059-.236-.118.177.118.118.059-.059-.059a1.763,1.763,0,0,0,2.479,0,1.834,1.834,0,0,0,0-2.537Z" transform="translate(-1983.295 -1265.667)" fill="#312e81"/>
          </g>
        </g>
        <g id="Group_26" data-name="Group 26" transform="translate(290.81 131.189)">
          <g id="Group_25" data-name="Group 25">
            <path id="Path_95" data-name="Path 95" d="M920.637,827.135a2.3,2.3,0,0,0-2.124,3.01c.413,1.357,2.065,2.419,3.364,1.475-.3.059-.59.177-.885.236a2.4,2.4,0,0,0,2.124-1.416,2.662,2.662,0,0,0-.059-2.124,2.8,2.8,0,0,0-1.18-1.416,2.242,2.242,0,0,0-2.715.413c.236-.177.531-.3.767-.472a2.676,2.676,0,0,0-1.829,2.6,2.594,2.594,0,1,0,4.367-2.006,1.967,1.967,0,0,0-1.239-.531,1.7,1.7,0,0,0-1.239.531,1.763,1.763,0,0,0,0,2.478c.059,0,.059.059.118.118a.816.816,0,0,1-.295-.531c.059.236,0-.531,0-.118.059-.354.059-.413.059-.236-.059.177,0,.118.118-.236-.118.177-.295.354.059-.059-.118.118-.059.059.177-.118-.177.118-.059.059.236-.118-.236.059.472,0,.177,0a.991.991,0,0,1,.826.354c-.177-.177.3.472.118.118.118.354.177.413.118.236a2.169,2.169,0,1,0,.059.3V829.5c0-.177,0-.118-.059.3.059-.177.177-.236-.118.177.059-.177.059-.059-.177.177.118-.118.059-.059-.236.177.177-.059.059-.059-.236.118a1.521,1.521,0,0,0,.767-.472c-.3.177-.354.236-.236.177-.354.118-.472.177-.3.118a1.376,1.376,0,0,1-1.062-.118c.3.177-.3-.3-.177-.177.177.177.059.177-.118-.177,0,.059.059.118.118.177.118.236-.177-.531-.059-.177s0-.472,0-.236-.059.3.059-.236c-.059.236.236-.472.118-.236a1.1,1.1,0,0,1,.826-.59c-.177.059-.059.059.3-.059a1.636,1.636,0,0,0-.531.059,1.187,1.187,0,0,0-.472.236c-.177.059-.059.059.3-.118a1.685,1.685,0,0,1,.767,0c.354.177.472.236.3.118.3.236.354.3.236.177a1.037,1.037,0,0,0,.236.3l-.059-.059c-.059-.177-.059-.059.118.3,0-.059-.059-.177-.059-.236.059.413.059.472.059.3s0-.059-.059.3c.059-.177,0-.059-.118.3.059-.118,0-.059-.177.236a1.405,1.405,0,0,1-.649.354c-.413.059-.472.059-.295.059a1.775,1.775,0,0,0,1.77-1.77,2.023,2.023,0,0,0-1.889-1.829Z" transform="translate(-918.1 -826.609)" fill="#312e81"/>
          </g>
        </g>
      </g>
    </g>
    <g id="color_outline" transform="translate(459.857)">
      <g id="Group_29" data-name="Group 29" transform="translate(0 0)">
        <path id="Path_96" data-name="Path 96" d="M1526.965,1153.159c-.295-13.632.649-27.5,4.9-40.482s11.92-25.139,23.133-32.929c22.247-15.4,55-12.038,74.118-31.217,11.212-11.271,14.871-27.677,18.884-43.078,3.954-15.343,9.56-31.748,22.719-40.6,11.389-7.671,26.614-8.38,37.236-17.054,9.973-8.144,14.163-21.952,24.49-29.624,5.783-4.308,14.576-5.96,19.946-1.121,4.839,4.367,4.78,12.038,3.069,18.353-5.547,20.89-23.487,36.292-31.335,56.415-3.246,8.38-3.423,20.123,4.662,24.018,6.668,3.187,14.34-1.18,20.6-5.134s14.517-7.672,20.6-3.482c4.485,3.068,5.606,9.442,4.012,14.635s-5.311,9.383-9.088,13.278a179.534,179.534,0,0,1-37.945,29.388c-12.628,7.318-26.968,13.927-33.636,26.85-1.416,2.774-2.42,6.137-.944,8.911,2.243,4.131,8.144,3.954,12.156,6.373,5.429,3.3,6.2,11.389,3.187,16.936s-8.852,9.029-14.635,11.625c-13.278,5.9-27.913,8.321-42.489,8.321-16.405,0-32.869-3.01-49.216-1.121s-32.751,10.209-38.771,25.493" transform="translate(-1293.787 -656.222)" fill="none" stroke="#4338ca" stroke-linecap="round" stroke-linejoin="round" stroke-miterlimit="10" stroke-width="6"/>
        <path id="Path_97" data-name="Path 97" d="M1623.92,1107.389c-1.475-2.773-4.544-1-6.2.531a20.744,20.744,0,0,0-6.255,12.215c-.118,1.18-.059,2.538.826,3.3a3.445,3.445,0,0,0,3.3.236c5.606-1.947,8.616-8.379,8.675-14.34A4.395,4.395,0,0,0,1623.92,1107.389Z" transform="translate(-1328.425 -734.849)" fill="none" stroke="#4338ca" stroke-miterlimit="10" stroke-width="6"/>
        <path id="Path_98" data-name="Path 98" d="M1995.351,858.44c-1.829-1.3-4.249-1.416-6.963.59-4.6,3.423-7.436,12.215-5.96,17.7,2.479,9.383,13.986-3.246,15.638-7.318C1999.658,865.521,1998.242,860.446,1995.351,858.44Z" transform="translate(-1480.332 -633.015)" fill="none" stroke="#4338ca" stroke-linecap="round" stroke-linejoin="round" stroke-miterlimit="10" stroke-width="6"/>
        <path id="Path_99" data-name="Path 99" d="M1992.574,923.6c-3.6-5.016-10.622,7.849-6.609,10.622,3.659,2.479,8.5-7.317,6.9-10.15A1.284,1.284,0,0,0,1992.574,923.6Z" transform="translate(-1481.451 -659.643)" fill="none" stroke="#4338ca" stroke-linecap="round" stroke-linejoin="round" stroke-miterlimit="10" stroke-width="6"/>
        <path id="Path_100" data-name="Path 100" d="M2092.449,974.868c-8.2-2.892-23.191,4.9-27.322,11.153-3.659,5.547-.354,7.671,5.075,7.022a62.5,62.5,0,0,0,20.772-6.137c4.485-2.3,9.206-7.908,2.773-11.507A12.028,12.028,0,0,0,2092.449,974.868Z" transform="translate(-1513.758 -680.872)" fill="none" stroke="#4338ca" stroke-linecap="round" stroke-linejoin="round" stroke-miterlimit="10" stroke-width="6"/>
        <path id="Path_101" data-name="Path 101" d="M1681.921,1362.312a18.392,18.392,0,0,0,14.163,7.082,4.885,4.885,0,0,0,2.066-.3c2.478-1.062,2.3-4.839.767-7.081-2.3-3.3-6.2-4.957-9.914-6.373-2.773-1.062-6.55-1.711-8.2.767" transform="translate(-1356.861 -836.813)" fill="none" stroke="#4338ca" stroke-linecap="round" stroke-linejoin="round" stroke-miterlimit="10" stroke-width="6"/>
        <path id="Path_102" data-name="Path 102" d="M1132.533,587.536c-4.485-20.359,13.455-65.326,53.7-63.379" transform="translate(-1131.86 -496.363)" fill="none" stroke="#4338ca" stroke-linecap="round" stroke-linejoin="round" stroke-miterlimit="10" stroke-width="6"/>
        <path id="Path_103" data-name="Path 103" d="M1204.619,528a129.5,129.5,0,0,1-36.705,89.048,3.184,3.184,0,0,1-1.593,1.062c-1.711.3-2.478-2.006-2.6-3.718a150.157,150.157,0,0,1,1.888-34.109" transform="translate(-1144.817 -497.963)" fill="none" stroke="#4338ca" stroke-linecap="round" stroke-linejoin="round" stroke-miterlimit="10" stroke-width="6"/>
        <path id="Path_104" data-name="Path 104" d="M1197.458,565.8A84.5,84.5,0,0,1,1183,606.223" transform="translate(-1152.821 -513.457)" fill="none" stroke="#4338ca" stroke-linecap="round" stroke-linejoin="round" stroke-miterlimit="10" stroke-width="6"/>
        <path id="Path_105" data-name="Path 105" d="M1186.214,565.8c-.885,2.714-1.829,5.37-2.714,8.084" transform="translate(-1153.026 -513.457)" fill="none" stroke="#4338ca" stroke-linecap="round" stroke-linejoin="round" stroke-miterlimit="10" stroke-width="6"/>
        <path id="Path_106" data-name="Path 106" d="M1179.6,482.8a49.185,49.185,0,0,1,23.073,14.694" transform="translate(-1151.428 -479.436)" fill="none" stroke="#4338ca" stroke-linecap="round" stroke-linejoin="round" stroke-miterlimit="10" stroke-width="6"/>
        <path id="Path_107" data-name="Path 107" d="M1216.1,477.1a27.879,27.879,0,0,1,6.078,12.333" transform="translate(-1166.388 -477.1)" fill="none" stroke="#4338ca" stroke-linecap="round" stroke-linejoin="round" stroke-miterlimit="10" stroke-width="6"/>
        <g id="Group_28" data-name="Group 28" transform="translate(62.635 1.062)">
          <path id="Path_108" data-name="Path 108" d="M1238,501.029c39.243-37.236,95.422-22.9,115.958,9.206" transform="translate(-1238 -478.9)" fill="none" stroke="#4338ca" stroke-linecap="round" stroke-linejoin="round" stroke-miterlimit="10" stroke-width="6"/>
          <path id="Path_109" data-name="Path 109" d="M1239.1,563.846a132.922,132.922,0,0,0,26.142,6.727c15.4,2.36,31.276,2.065,46.265-2.183s28.975-12.51,38.948-24.49" transform="translate(-1238.451 -505.543)" fill="none" stroke="#4338ca" stroke-linecap="round" stroke-linejoin="round" stroke-miterlimit="10" stroke-width="6"/>
          <path id="Path_110" data-name="Path 110" d="M1353.1,585.251A68.9,68.9,0,0,0,1407.863,562" transform="translate(-1285.178 -512.961)" fill="none" stroke="#4338ca" stroke-linecap="round" stroke-linejoin="round" stroke-miterlimit="10" stroke-width="6"/>
          <path id="Path_111" data-name="Path 111" d="M1286.7,549.182a90.405,90.405,0,0,0,65.444-23.782" transform="translate(-1257.961 -497.96)" fill="none" stroke="#4338ca" stroke-linecap="round" stroke-linejoin="round" stroke-miterlimit="10" stroke-width="6"/>
          <path id="Path_112" data-name="Path 112" d="M1299.8,542.17a71.706,71.706,0,0,0,18.825-8.97" transform="translate(-1263.331 -501.157)" fill="none" stroke="#4338ca" stroke-linecap="round" stroke-linejoin="round" stroke-miterlimit="10" stroke-width="6"/>
        </g>
      </g>
    </g>
  </g>
</svg>
