<?xml version="1.0" standalone="no"?>
<!DOCTYPE svg PUBLIC "-//W3C//DTD SVG 20010904//EN"
 "http://www.w3.org/TR/2001/REC-SVG-20010904/DTD/svg10.dtd">
<svg version="1.0" xmlns="http://www.w3.org/2000/svg"
 width="260.000000pt" height="260.000000pt" viewBox="0 0 260.000000 260.000000"
 preserveAspectRatio="xMidYMid meet">
<metadata>
Created by potrace 1.14, written by Peter Selinger 2001-2017
</metadata>
<g transform="translate(0.000000,260.000000) scale(0.100000,-0.100000)"
fill="#000000" stroke="none">
<path d="M260 2047 c0 -9 1485 -1487 1494 -1488 14 -1 532 -1 566 0 21 1 -106
132 -720 746 l-745 745 -297 0 c-164 0 -298 -2 -298 -3z"/>
<path d="M1880 1335 c393 -393 716 -715 717 -715 2 0 3 322 3 715 l0 715 -194
0 -193 0 -1 -207 c0 -115 0 -217 -1 -227 -1 -14 -67 47 -227 207 l-226 227
-297 0 -296 0 715 -715z"/>
<path d="M0 1275 c0 -565 3 -715 13 -716 14 -1 346 -1 365 0 9 1 12 53 12 228
l0 227 228 -230 229 -229 279 2 c153 0 287 2 296 2 11 1 -257 275 -697 716
-393 393 -717 715 -720 715 -3 0 -5 -322 -5 -715z"/>
</g>
</svg>
